<svg xmlns="http://www.w3.org/2000/svg" width="491.786" height="181.643" viewBox="0 0 491.786 181.643"><g transform="translate(-242.9 -416.651)"><g transform="translate(230.9 406.651)"><g transform="translate(159.254 10)"><path d="M114.1,75.28h15.721V50.906h25.961V36.051H129.821v-10.1h27.547V11.1H114.1Z" transform="translate(-114.1 -9.514)" fill="#dfa86a"/><path d="M203.079,19.042a29.944,29.944,0,0,0-10.817-6.779,37.716,37.716,0,0,0-12.98-2.163H178.7a36.4,36.4,0,0,0-13.413,2.452,28.5,28.5,0,0,0-10.673,6.923,32.712,32.712,0,0,0-7.067,10.817A35.844,35.844,0,0,0,145.1,44.137a34.422,34.422,0,0,0,2.6,13.557,31.464,31.464,0,0,0,7.067,10.528A32.855,32.855,0,0,0,165.436,75a36.962,36.962,0,0,0,13.413,2.452h0a34.421,34.421,0,0,0,13.557-2.6,32.366,32.366,0,0,0,10.817-6.923,30.684,30.684,0,0,0,7.067-10.673,34.421,34.421,0,0,0,2.6-13.557,38.758,38.758,0,0,0-2.452-13.846A42.03,42.03,0,0,0,203.079,19.042ZM196.3,43.272A22.053,22.053,0,0,1,195,51.06a18.277,18.277,0,0,1-3.606,6.057,15.167,15.167,0,0,1-5.481,3.894,18.749,18.749,0,0,1-14.423,0,18.877,18.877,0,0,1-5.481-3.894,18.277,18.277,0,0,1-3.606-6.057,22.629,22.629,0,0,1-1.3-7.788,19.437,19.437,0,0,1,1.3-7.211,17.258,17.258,0,0,1,9.086-9.663,18.9,18.9,0,0,1,7.211-1.442,16.965,16.965,0,0,1,7.211,1.442,13.625,13.625,0,0,1,5.481,3.894A16.988,16.988,0,0,1,195,36.061,19.438,19.438,0,0,1,196.3,43.272Z" transform="translate(-100.39 -9.956)" fill="#dfa86a"/><path d="M237.512,43.074a18.962,18.962,0,0,0,4.183-12.4,19.351,19.351,0,0,0-2.163-9.519,16.658,16.658,0,0,0-5.769-6.057,22.728,22.728,0,0,0-7.932-3.029,42.955,42.955,0,0,0-8.654-.865H194.1V75.38h15.865v-25.1h3.317l13.557,24.951h18.894L229.579,48.41A18.019,18.019,0,0,0,237.512,43.074Zm-27.836-17.74h6.346a35.511,35.511,0,0,1,3.75.288,9.321,9.321,0,0,1,3.029.865,4.24,4.24,0,0,1,1.731,1.442,4.336,4.336,0,0,1,.577,2.6,5.861,5.861,0,0,1-.721,3.029A3.692,3.692,0,0,1,222.512,35a12.473,12.473,0,0,1-3.317.865c-1.442.144-2.885.144-4.183.144h-5.481V25.334Z" transform="translate(-78.72 -9.469)" fill="#dfa86a"/><path d="M249.157,30.192a17.121,17.121,0,0,1,5.481-3.894,18.9,18.9,0,0,1,7.211-1.442,23.005,23.005,0,0,1,7.644,1.3,16.307,16.307,0,0,1,5.913,3.606l1.875,1.875,11.538-11.682-2.163-1.875a28.976,28.976,0,0,0-11.682-6.346A49.947,49.947,0,0,0,261.7,10a36.4,36.4,0,0,0-13.413,2.452,28.5,28.5,0,0,0-10.673,6.923,32.712,32.712,0,0,0-7.067,10.817A35.844,35.844,0,0,0,228.1,44.037a34.422,34.422,0,0,0,2.6,13.557,31.464,31.464,0,0,0,7.067,10.528A32.855,32.855,0,0,0,248.436,74.9a36.961,36.961,0,0,0,13.413,2.452,52.81,52.81,0,0,0,25.672-6.2l1.442-.721V35.961H261.128V50.816h12.115v9.663a17.758,17.758,0,0,1-4.183,1.3,35.151,35.151,0,0,1-6.923.721,16.965,16.965,0,0,1-7.211-1.442,18.877,18.877,0,0,1-5.481-3.894A18.277,18.277,0,0,1,245.84,51.1a22.629,22.629,0,0,1-1.3-7.788,19.438,19.438,0,0,1,1.3-7.211A15.778,15.778,0,0,1,249.157,30.192Z" transform="translate(-63.683 -10)" fill="#dfa86a"/><path d="M290.465,60.425V49.9h26.97V35.041h-26.97V25.955h28.557V11.1H274.6V75.28h45.864V60.425Z" transform="translate(-43.118 -9.514)" fill="#dfa86a"/></g><path d="M126.8,19.177l-54.517-2.74h66.632V11.1H63.633V31.292c0,.144-2.163-13.125-2.74-16.874H54.979V33.167c0,.144-2.6-15.721-2.74-17.74H12c2.74,2.308,17.884,15.288,28.7,20.624,5.336,2.6,11.971,2.74,17.884,2.885,3.029.144,6.057.288,8.365,2.6A8.908,8.908,0,0,1,68.1,53.5c-2.74,3.75-10.528,4.615-10.528,4.615l-6.634,7.788v9.23H65.8l.433-9.086,12.836-9.086c-1.3,1.154-4.471,4.038-8.942,11.105a23.3,23.3,0,0,0-2.452,5.048c3.173-2.74,9.807-4.615,17.6-4.615,7.644,0,14.278,1.875,17.451,4.615a23.3,23.3,0,0,0-2.452-5.048C95.651,61,92.622,58.118,91.324,56.964L104.16,66.05l.433,9.086h13.846v-9.23l-6.49-7.932s-9.663-.577-12.115-4.615C92.334,42.108,102.574,24.513,126.8,19.177Z" transform="translate(0 0.486)" fill="#faf4f3"/></g><g transform="translate(383.576 515.722)"><g transform="translate(17.154 4.278)"><rect width="69.629" height="69.629" transform="translate(6.863 4.752)" fill="none"/><path d="M68.934,4.278,17.154,30.662l26.383,51.78,51.78-26.384L68.934,4.278Z" transform="translate(-17.154 -4.278)" fill="#fff" fill-rule="evenodd"/><path d="M70.742,4.774,17.652,28.411,41.289,81.5l53.09-23.637L70.742,4.774Z" transform="translate(-16.933 -4.058)" fill="#fa0" fill-rule="evenodd"/><path d="M72.48,5.348,18.225,26.173,39.052,80.428,93.305,59.6,72.48,5.348Z" transform="translate(-16.679 -3.804)" fill="#aaa" fill-rule="evenodd"/><path d="M74.133,5.982,18.864,23.94,36.822,79.209,92.091,61.251,74.133,5.982Z" transform="translate(-16.396 -3.523)" fill="#55f" fill-rule="evenodd"/><path d="M75.711,6.7,19.579,21.738l15.04,56.134L90.753,62.831,75.711,6.7Z" transform="translate(-16.079 -3.206)" fill="#5f5" fill-rule="evenodd"/><path d="M77.342,7.4,20.39,19.6l12.2,56.952,56.952-12.2L77.342,7.4Z" transform="translate(-15.72 -2.896)" fill="#67cbdf" fill-rule="evenodd"/><path d="M78.6,8.321,21.2,17.413l9.092,57.4,57.4-9.092L78.6,8.321Z" transform="translate(-15.361 -2.487)" fill="#f55" fill-rule="evenodd"/><path d="M79.9,9.231,22.109,15.305l6.074,57.8,57.8-6.074L79.9,9.231Z" transform="translate(-14.958 -2.083)" fill="#f5f" fill-rule="evenodd"/><path d="M81.112,10.194,23.078,13.236,26.12,71.27l58.034-3.042L81.112,10.194Z" transform="translate(-14.529 -1.657)" fill="#ff5" fill-rule="evenodd"/><rect width="58.114" height="58.114" transform="translate(10.024 10.019)" fill="#444"/><path d="M71.393,19.027,65.448,54.7a1.444,1.444,0,0,1-.75,1.039,1.518,1.518,0,0,1-.722.188,1.458,1.458,0,0,1-.548-.115l-10.52-4.329-5.614,6.855a1.443,1.443,0,0,1-1.14.534,1.216,1.216,0,0,1-.505-.1,1.448,1.448,0,0,1-.981-1.443V49.288L64.726,24.756,39.9,46.186l-9.164-3.766a1.514,1.514,0,0,1-.188-2.713L69.185,17.482a1.445,1.445,0,0,1,1.573,0A1.531,1.531,0,0,1,71.393,19.027Z" transform="translate(-11.554 1.47)" fill="#fff"/></g><g transform="translate(109.29 23.056)"><path d="M115.057,17.29q7.533,0,10.448,5.253l1.3,5.253q0,3.247-18.919,12.4-9.812,4.07-10.217,5.051c-1.01,1.8-1.66,2.713-1.948,2.713a7.509,7.509,0,0,0-1.948,2.511h-.433v.216l-.216-.216h-.216c-.317,0-.75.924-1.313,2.742H91.1l.216.216v.2c-.447,0-1.53,1.688-3.261,5.051q-.649,2.511-2.6,2.511v-.419h-.13l-.866.2-.245-.2H84l-.649.2-.433-.419-.433.419L81,59.3v-.375q0-2.078,5.44-12.988l-.649-.2.216-.216v-.2l-1.082-.866-.895.216-.433-.635.216-.2v-.216c-.866,0-1.3-.216-1.3-.621a50.505,50.505,0,0,1,8.471-4.849l4.329-8.659H95.1q-2.6,0-5.008-4.834v-1.9q1.775-2.18,9.135-3.55,4.2-.866,15.831-1.9ZM103.094,32.847h.231a64.5,64.5,0,0,0,12.988-7.793v-.216H116.1q-8.89.331-8.9,1.284Z" transform="translate(-81 -17.29)" fill="#fff"/><path d="M128.669,18.46c3.867,0,6.22,1.111,7.1,3.334a116.789,116.789,0,0,1,1.8,11.718l.216.2c0,.924.274,1.371.592,1.371l6.48-.779v.39h.216l3.218-.188v.375l-1.443.39v.216h1.443l1.443-.216v.4a10.089,10.089,0,0,1-3.233.794v.39l1.01-.216c.938.274,1.443.534,1.443.794l1.039-.2c2.684.072,4.041.332,4.041.794l-.216.173,1.443.4V39c-1.833.924-5.6,1.7-11.328,2.352l-3.637.577q2.626,9.957,2.626,13.507v.779l-.606.606H142.1a2.326,2.326,0,0,1-1.443-.606v.606h-.447v-.4l-.621.4-.794-.606-2.02.779-1.645-1.559q-1.011-1.574-3.03-11.545h-.188q-12.743,3.377-12.757,5.3a38.011,38.011,0,0,0-4.921,6.047c-.924,1.053-1.674,1.587-2.237,1.587l-.4-.981-.2.188h-.188c-.823-.476-1.227-.981-1.227-1.559l-.188.188h-.419v-.4c-.563,0-1.1-.39-1.6-1.154-.548,0-.823-.13-.823-.4V51.319q0-2.193,4.863-7.215a111.424,111.424,0,0,1,6.754-9.221l6.884-11.718,1.443-3.925a3.357,3.357,0,0,1,1.775-.779Zm-1.616,18.977v.188c2.295-.577,3.435-.952,3.435-1.154l-.592-3.146a16.477,16.477,0,0,0-2.872,4.113h.029Zm18.76-3.319h.4v.39h-.4Zm.216,1.371v.188h.4v-.188Z" transform="translate(-69.502 -16.772)" fill="#fff"/><path d="M159.457,17.29c5.008,0,8.5,1.746,10.434,5.253l1.3,5.253q0,3.247-18.9,12.4-9.827,4.07-10.232,5.051c-1.01,1.8-1.66,2.713-1.948,2.713a7.509,7.509,0,0,0-1.948,2.511h-.433v.216l-.216-.216h-.216c-.3,0-.736.924-1.3,2.742h-.433l.216.216v.2c-.447,0-1.544,1.688-3.276,5.051q-.649,2.511-2.6,2.511v-.419h-.216l-.866.2-.245-.2h-.216l-.649.2-.433-.419-.433.419L125.4,59.3v-.375q0-2.078,5.44-12.988l-.649-.2.216-.216v-.2l-1.082-.866-.895.216L128,44.031l.216-.2v-.216c-.866,0-1.3-.216-1.3-.621a51.186,51.186,0,0,1,8.471-4.849l4.329-8.659H139.5q-2.6,0-5.008-4.834v-1.9c1.183-1.443,4.243-2.641,9.149-3.55q4.1-.866,15.816-1.9ZM147.494,32.847h.216A64.608,64.608,0,0,0,160.7,25.054v-.216h-.216c-5.946.216-8.9.649-8.9,1.284Z" transform="translate(-61.326 -17.29)" fill="#fff"/><path d="M181.606,18.33c0,.534.274.794.823.794V19.5h-.635v.2c.693,0,1.039.13,1.039.4v.2h-.823c0,.4.418.606,1.227.606v.39h-.621v.188H185.1l1.876,1.01-.216.2v.188c.678,0,1.025.144,1.025.419s-2.54,1.01-7.648,1.573q-2.6,0-9.885,2.8l-2.295,4.329h.216a32.929,32.929,0,0,1,6.407-.606l.4.606-.621.216v.26c1.111,0,1.66.13,1.66.39l-1.039.418v.188h.418l-.2.606q0,1,1.645,1.6v.188l-.2.216v.173c.693,0,1.039.144,1.039.418v.188q0,.606-12.988,3.189-1.6,0-4.142,6l14.878-2.4v.361h.26l1.025-.2c.188.664.52,1,1.039,1v.649a1.444,1.444,0,0,0-1.039.606h-.433v.188h1.255v.418H176.5l.216.188v.2l-.216.188c2.035,0,3.146.332,3.3,1l-.188.216c.678.087,1.025.289,1.025.606-1.212.75-5.354,1.746-12.4,2.973-8.255,1.342-12.382,2.554-12.382,3.608A3.15,3.15,0,0,1,154,57.452h-.216l-1.227-1.01h-.433l-1.025.216c0-.346-.693-.678-2.049-1l-.635.188-.2-.188v-.216l.2-.606h-.4l-.216.216h-.188l-.216-.216v-.188q1.7-5.931,15.282-33.523c0-1.342.952-2.136,2.886-2.4l8.052.2,7.995-.606Z" transform="translate(-51.583 -16.829)" fill="#fff"/><path d="M192.078,17.35h1.876q14.027,0,16.552,8.9l.216,1.241V28.1q0,2.669-12.584,8.9,3.16,12.9,3.16,18.024l.216.2v.188l-.216.621.216,1.818-.216.216h-.418q0-.823-.433-.823c0,.4-.13.606-.4.606h-.433l-.188-.2h-.216c-.216.534-.418.808-.635.808l-1.053-.2-.4.419c-.1-.693-.462-1.025-1.068-1.025A110.655,110.655,0,0,1,190.2,40.238l-9.438,3.045c-.866,1.9-1.559,2.987-2.092,3.233l-.216,1.025h-.621l.837-2.237v-.2h-.216l-.981,2.251.433.418c-.534,0-1.587,1.443-3.146,4.243q-.3,0-1.255,2.641c-.289,0-1,1.357-2.092,4.055H171.2c0-.621-.707-1.169-2.092-1.631l-.418.419c0-.289-.216-.419-.649-.419l-.621.2a1.745,1.745,0,0,0-1.255-1.212v-.621q0-4.92,11.545-27.13c-2.886-1.934-4.329-3.478-4.329-4.661v-1c.115-.707,2.7-1.934,7.749-3.651.548-1.111,4.243-1.66,10.953-1.66Zm-6.71,16h.433q12.583-5.21,15.282-8.3V24.84l-4.185-.188h-.418q-7.966,0-7.966,1.818a42.75,42.75,0,0,1-3.146,6.884Z" transform="translate(-43.266 -17.263)" fill="#fff"/><path d="M209.136,17.61h1.082c1.66,0,3.1,1.039,4.329,3.146l-.433,8.37A12.631,12.631,0,0,0,215.2,34.8c.318,0,1.761-1.443,4.329-4.214q.736-.216,8.659-8.154,2.987-3.983,6.09-3.983l1.443-.216q2.121.476,2.381,1.255.491,0,1.948,1.688v.418c0,1.443-2.092,6.581-6.292,15.5q-2.149,5.022-2.886,5.022l.216.216v.2l-2.886,5.44q-.361,0-3.463,6.941l-1.328,1.876h-1.443v-.419l-.866.419c0-.3-.505-.592-1.443-.837l-.433.418q-.606,0-.866-1.039c-.577,0-.866-.144-.866-.418V53.471q0-4.07,6.494-15.715a41.73,41.73,0,0,0-6.494,7.533c-.476,0-1.14.418-1.977,1.255H215.3a10.947,10.947,0,0,0-4.329-1.89q-2.18-1.444-3.9-8.572h-.216q-9.466,20.969-10.419,21.791H196l-1.082-.635-.649.216-.216-.216-.216.216-.433-.837-.433.419-.216-.216-1.948.419q-.476-1.141-1.3-1.255v-.837q0-5.022,12.367-28.5c1.934-5.772,3.536-8.586,4.762-8.586l2.5-.447Z" transform="translate(-32.919 -17.148)" fill="#fff"/><path d="M251.768,18.751h1.573c3.882,0,6.653,1.1,8.327,3.261v1.948c0,2.771-1.053,4.142-3.16,4.142a17.994,17.994,0,0,0-4.935-.649q-16.495,0-22.686,15.181l-.462,2.194v.649q0,3.262,4.5,4.113a34.12,34.12,0,0,0,7.418.649h4.07v.447h-.924v.2c.361,0,.736.289,1.14.866h.216V52.4l-2.453.231v.216h.433l-.433,1.3h.433v.433h-.433V54.8a.708.708,0,0,1,.124-.01.769.769,0,0,1,.765.765.707.707,0,0,1-.009.111h.462l-.245-.216v-.2l.245-.231h1.342v.375l.216.216-.216.231h-.664v.2l.433.447h.664l-.216-.231v-.216l.678-.2.678.2q0,1.948-15.715,1.963-9.914,0-13.926-9.337V45.78q0-10.1,14.142-21.488A32.524,32.524,0,0,1,251.768,18.751Zm-4.95,32.311h1.342v.433h-1.342Z" transform="translate(-19.848 -16.644)" fill="#fff"/></g></g><path d="M73.092,32.486h-25.3V7.185a5.623,5.623,0,0,0-5.622-5.622H36.546a5.623,5.623,0,0,0-5.622,5.622v25.3H5.622A5.623,5.623,0,0,0,0,38.108v5.622a5.623,5.623,0,0,0,5.622,5.622h25.3v25.3a5.623,5.623,0,0,0,5.622,5.622h5.622a5.623,5.623,0,0,0,5.622-5.622v-25.3h25.3a5.623,5.623,0,0,0,5.622-5.622V38.108A5.623,5.623,0,0,0,73.092,32.486Z" transform="translate(274 518.018)" fill="#fff"/></g></svg>